<?xml version="1.0" encoding="utf-8"?>
<!-- Generator: Adobe Illustrator 23.0.3, SVG Export Plug-In . SVG Version: 6.00 Build 0)  -->
<svg version="1.1" id="Layer_1" xmlns="http://www.w3.org/2000/svg" xmlns:xlink="http://www.w3.org/1999/xlink" x="0px" y="0px"
	 viewBox="0 0 1200 1200" enable-background="new 0 0 1200 1200" xml:space="preserve">
<path fill="#2C2C2C" d="M140.589,1138.917c-0.296-0.062-0.593-0.124-0.89-0.186c31.391,6.026,65.318,8.61,97.783,4.319
	c-0.302,0.018-0.604,0.036-0.906,0.054c12.853-0.998,25.823-4.698,38.114-8.427c8.131-2.466,22.932-6.929,21.932-17.57
	c14.024,1.915,28.693,1.743,42.808,1.793c17.916,0.064,35.468-0.138,53.295-1.718c26.252-2.327,56.449-2.584,80.544-14.111
	c6.547-3.132,15.821-7.564,17.902-15.308c2.044-7.607-4.917-14.91-10.381-19.222c-11.657-9.2-22.811-0.984-35.383-3.736
	c-7.909-1.731-15.185-0.594-22.821-3.671c-2.243-0.904-4.337-1.845-6.355-3.26c-2.534-1.776-4.503-4.111-6.964-5.974
	c-1.655-1.253-4.631-2.096-6.044-3.406c-3.049-2.827-1.043-7.795-0.68-11.833c0.794-8.833-1.163-14.416-5.273-21.967
	c-6.716-12.338-5.833-26.73-8.112-40.312c-4.459-26.563-4.43-53.789-8.884-80.241c-2.238-13.289,2.263-27.559,4.278-40.769
	c1.135-7.441,1.998-15.293,0.938-22.784c-0.975-6.89-2.485-13.619-2.896-20.595c-0.716-12.176-0.719-24.081-1.596-35.227
	c-1.058-13.45-2.332-27.779-0.964-41.238c2.525-24.847,5.2-49.255,6.323-74.219c1.619-36.025,6.392-73.333,1.234-109.222
	c2.21,4.625,5.709,9.178,8.127,13.821c1.416,2.719,3.194,5.688,5.159,7.613c-0.181-0.227-0.363-0.453-0.545-0.68
	c2.496,3.05,7.147,3.51,10.693,4.93c5.874,2.352,10.262,2.452,16.406,0.698c1.011-0.289,2.06-0.575,3.055-0.919
	c5.047-1.746,5.344-1.257,10.364,1.091c4.686,2.191,11.598,3.363,15.351,6.908c3.084,2.912,5.08,8.858,7.172,12.707
	c2.555,4.7,4.709,11.881,8.389,15.813c2.526,2.698,3.38,2.05,6.472,1.461c4.528-0.863,4.053-1.581,6.761,2.723
	c-0.131-0.258-0.262-0.516-0.392-0.775c4.265,7.169,7.545,14.797,11.345,22.209c2.329,4.543,4.72,9.053,7.187,13.522
	c1.256,2.275,5.469,7.205,5.469,9.572c5.2,8.519,10.322,18.183,17.579,25.544c7.245,7.35,17.769,10.534,26.908,14.977
	c4.244,2.063,8.535,4.461,12.1,6.432c4.823,2.667,9.087,5.884,13.309,9.415c5.162,4.317,7.127,9.762,10.238,15.753
	c23.204,44.688,45.089,90.335,66.209,136.052c9.339,20.214,18.19,40.636,27.194,61c4.46,10.087,8.743,20.242,13.389,30.245
	c2.785,5.995,5.49,12.009,7.9,18.165c1.996,5.099,2.152,5.963,0.014,10.732c-1.832,4.084-3.307,8.33-4.488,12.645
	c-4.23,15.459-3.973,32.007,0.633,47.345c0.952,3.169,3.14,6.808,3.682,9.997c0.392,2.31-0.211,5.544-0.132,7.929
	c0.252,7.617,1.57,15.218,3.857,22.487c9.292,29.536,34.179,52.285,64.499,58.687c32.644,6.893,67.387-6.239,87.109-33.19
	c4.39-6,4.692-6.601,11.663-9.149c4.306-1.574,5.085-1.793,8.689,0.137c3.414,1.829,3.725,3.067,7.891,2.259
	c2.541-0.492,5.101-1.677,7.602-2.456c8.24-2.565,17.025-5.213,24.73-9.167c3.238-1.661,4.638-2.924,7.924-2.839
	c3.578,0.093,5.571,0.391,9.125-0.643c19.698-5.73,38.917-14.752,57.562-23.222c24.381-11.076,49.468-22.52,72.418-36.361
	c10.92-6.586,21.658-14.386,31.659-22.317c8.862-7.029,13.698-14.443,11.067-25.939c-8.499-37.126-25.895-73.704-39.799-109.472
	c-16.811-43.247-34.062-86.242-51.252-129.332c-18.679-46.822-35.488-94.274-52.926-141.54c-2.695-7.306-5.748-14.362-6.48-22.18
	c-0.322-3.434,0.067-9.185-0.226-11.439c1.237-18.72,11-35.327,16.756-52.922c2.596-7.935,5.91-16.419,7.147-24.668
	c1.351-9.009-2.616-17.389-5.077-25.909c0.036,0.195,0.072,0.39,0.108,0.585c-1.727-8.159-4.017-16.535-6.552-24.471
	c-2.792-8.743-6.848-17.756-8.641-26.731c-0.446-2.231-0.953-2.5-0.216-3.896c0.716-1.356,3.734-2.64,4.784-4.261
	c2.187-3.377,1.952-6.395,1.084-10.171c-0.949-4.127-2.575-8.195-3.861-12.235c-1.516-4.76-3.067-9.542-4.459-14.279
	c-0.671-2.284-1.416-4.558-2.04-6.855c-0.795-2.925-0.437-3.927-0.275-6.441c0.279-4.318-0.579-6.927-1.927-11.067
	c-2.541-7.8-4.62-18.063-10.1-24.491c-6.037-7.082-14.883-2.632-22.563-0.528c-17.084,4.682-33.462,11.494-50.133,17.385
	c-19.329,6.83-38.653,13.547-58.119,19.98c-32.759,10.825-65.954,22.292-97.78,35.57c-11.952,4.986-23.707,10.4-35.595,15.531
	c-12.741,5.5-21.215,12.276-30.332,22.646c-4.952,5.632-6.646,8.694-13.628,11.351c-7.955,3.028-16.055,5.668-24.072,8.523
	c-15.349,5.467-30.652,11.046-45.792,17.074c-26.571,10.579-54.038,22.36-79.514,32.979c-4.668,1.946-8.664,4.011-13.58,4.338
	c-4.423,0.294-8.87-0.203-13.33,0.2c-5.85,0.528-11.707,1.209-17.498,2.19c-6.973,1.181-7.515,3.062-12.729-1.534
	c-4.273-3.766-3.374-6.268-5.26-11.469c-1.39-3.832-3.935-6.927-6.707-9.836c-5.81-6.098-11.518-11.756-16.891-18.312
	c-2.782-3.394-5.908-6.046-9.646-8.341c-2.421-1.486-6.474-2.601-7.631-4.738c-1.781-3.291-0.495-12.397-0.724-16.144
	c-0.205-3.355-0.523-6.661-0.974-9.995c-0.818-6.043-1.652-12.088-2.354-18.146c-2.247-19.366-5.14-37.912-10.919-56.4
	c-2.523-8.073-4.947-16.064-6.9-24.295c-1.724-7.267-2.592-14.868-6.088-21.566c0.063,0.168,0.126,0.336,0.189,0.504
	c-1.165-2.927-3.113-4.799-4.888-7.255c-2.274-3.146-3.026-6.222-4.032-10.034c-1.36-5.157-2.399-10.534-4.499-15.442
	c-3.122-7.297-8.249-13.304-8.792-21.441c-0.511-7.652-0.061-15.013-1.798-22.53c-1.784-7.719-4.362-11.805-9.196-17.662
	c-2.553-3.093-2.432-3.447,0.94-6.768c1.447-1.425,3.364-2.818,5.182-3.49c3.285-1.215,6.97-0.721,10.241-2.242
	c4.597-2.138,7.388-6.584,9.661-10.929c2.641-5.046,4.846-10.388,6.609-15.797c2.369-7.266,3.767-15.411,4.519-23.029
	c0.825-8.369-0.714-16.387,0.125-24.639c0.781-7.675,2.948-14.001,0.952-21.649c-2.139-8.196-4.077-16.246-7.49-24.016
	c-7.506-17.086-26.363-26.907-43.699-31.586c-19.881-5.367-41.124,0.002-52.497,17.879c-3.719,5.846-7.407,12.239-9.223,18.965
	c-1.224,4.529-1.529,9.25-1.513,13.922c0.013,3.848,1.073,7.962-0.909,11.032c-2.96,4.583-6.76,6.664-7.1,12.904
	c-0.206,3.796,0.962,7.29,2.105,10.849c1.271,3.958,3.622,7.851,3.55,12.027c-0.077,4.481-1.947,9.143-2.868,13.49
	c-4.226-1.455-11.351-3.406-15.417-0.754c-2.671,1.742-5.37,7.42-6.815,10.32c-2.001,4.015-1.421,10.533-3.873,14.054
	c-1.103,1.583-4.735,3.16-6.28,4.551c-2.367,2.131-4.389,4.497-6.03,7.228c-2.731,4.545-4.289,8.918-7.925,12.936
	c-3.483,3.85-7.203,7.366-10.281,11.577c-6.656,9.109-10.977,19.807-16.942,29.345c0.139-0.168,0.277-0.336,0.416-0.504
	c-12.804,18.41-15.782,38.207-19.203,59.899c-2.834,17.964-1.513,35.452-0.489,53.442c1.29,22.669,2.593,45.365,7.36,67.546
	c3.832,17.827-0.534,35.175-1.367,53.082c-0.478,10.288-1.893,20.534-4.079,30.607c-1.687,7.772-3.172,15.174-1.778,23.152
	c2.857,16.36-0.099,33.484-1.615,50.038c-1.964,21.454-4.21,41.688-4.299,63.461c-0.036,8.798,2.346,16.904,4.019,25.47
	c2.212,11.327,5.175,22.916,9.029,33.811c3.367,9.52,9.219,18.813,9.832,29.039c0.579,9.651,1.811,22.159,2.235,33.137
	c0.25,6.463,2.192,17.653-0.524,23.45c-0.634,1.352-1.64,1.56-2.54,2.645c-2.636,3.179-4.97,6.305-6.548,10.198
	c-0.545,1.343-1.706,5.384-1.721,5.557c-2.134,6.397-4.628,13.457-4.865,20.243c-0.156,4.463,0.531,8.666-0.364,12.897
	c-12.869,40.774-18.777,82.126-22.098,123.463c-0.772,9.613-1.139,18.664-9.212,24.737c-8.342,6.275-10.086,15.767-12.637,25.506
	c-1.376,5.255-1.644,9.856,0.214,15.07c1.148,3.222,5.165,9.79,4.484,13.376c-0.649,3.415-5.604,4.609-7.739,6.457
	c-4.277,3.7-6.24,10.152-6.568,15.626c-0.547,9.114-2.192,16.798-4.307,25.64c-1.542,6.448-3.341,12.362-3.512,19.115
	C90.153,1141.497,125.919,1136.648,140.589,1138.917z M213.519,1072.475c1.905-4.027,5.276-6.572,6.051-11.067
	c0.392-2.272-0.396-4.521,0.519-6.648c1.638-3.806,6.15-6.965,8.366-10.629c-0.177,0.235-0.354,0.469-0.531,0.704
	c4.075-5.948,7.51-13.097,11.236-18.87c4.533-7.023,9.734-13.69,14.03-20.848c8.153-13.586,11.407-30.727,15.173-45.912
	c2.833,10.812,6.811,21.707,8.135,32.809c0.601,5.039,0.597,10.589,3.048,15.139c2.509,4.658,7.247,8.182,11.57,11.04
	c-5.836,5.744-6.367,18.647-3.409,26.193c1.735,4.425,3.356,4,2.727,9.509c-0.293,2.559-0.876,5.136-1.316,7.676
	c-1.922,11.106-2.144,22.51-4.901,33.405c-8.356-2.259-16.455-0.021-24.759-1.806c-5.484-1.178-10.242-2.936-16.016-3.281
	c-5.866-0.35-13.475-2.333-18.561-5.466C222.051,1082.677,212.778,1075.301,213.519,1072.475z"/>
</svg>
